<svg xmlns="http://www.w3.org/2000/svg" x="0px" y="0px" width="30" height="30" viewBox="0 0 172 172" style=" fill:#000000;"><g fill="none" fill-rule="nonzero" stroke="none" stroke-width="1" stroke-linecap="butt" stroke-linejoin="miter" stroke-miterlimit="10" stroke-dasharray="" stroke-dashoffset="0" font-family="none" font-weight="none" font-size="none" text-anchor="none" style="mix-blend-mode: normal"><path d="M0,172v-172h172v172z" fill="none"></path><g fill="#4caf50"><path d="M34.4,17.2c-3.16643,0 -5.73333,2.5669 -5.73333,5.73333c-0.00001,0.00747 -0.00001,0.01493 0,0.0224v63.04427v63.04427c-0.00001,0.00746 -0.00001,0.01493 0,0.02239c0,3.16643 2.5669,5.73333 5.73333,5.73333c1.19346,-0.00345 2.3561,-0.37925 3.32578,-1.075l0.0112,0.0112l113.71485,-62.52917c2.03773,-0.93223 3.34559,-2.96619 3.34817,-5.20703c0.00115,-2.30642 -1.37987,-4.38898 -3.50495,-5.28542l-113.55807,-62.45078h-0.0112c-0.97102,-0.69177 -2.13354,-1.06362 -3.32578,-1.0638z"></path></g></g></svg>
