<?xml version="1.0" encoding="UTF-8"?>
<svg xmlns="http://www.w3.org/2000/svg" xmlns:xlink="http://www.w3.org/1999/xlink" width="360pt" height="359pt" viewBox="0 0 360 359" version="1.1">
<g id="surface16">
<path style="fill:none;stroke-width:10.77;stroke-linecap:square;stroke-linejoin:miter;stroke:rgb(0%,0%,0%);stroke-opacity:1;stroke-miterlimit:3.25;" d="M 306.972656 133 C 306.972656 103.039063 295.070313 74.300781 273.886719 53.113281 C 252.699219 31.929688 223.960938 20.027344 194 20.027344 C 164.039063 20.027344 135.300781 31.929688 114.113281 53.113281 C 92.929688 74.300781 81.027344 103.039063 81.027344 133 C 81.027344 162.960938 92.929688 191.699219 114.113281 212.886719 C 135.300781 234.070313 164.039063 245.972656 194 245.972656 C 223.960938 245.972656 252.699219 234.070313 273.886719 212.886719 C 295.070313 191.699219 306.972656 162.960938 306.972656 133 Z M 306.972656 133 " transform="matrix(1,0,0,1,-74,-13)"/>
<path style=" stroke:none;fill-rule:evenodd;fill:rgb(0%,0%,0%);fill-opacity:1;" d="M 202.703125 221.054688 C 199.875 223.878906 198.289063 227.710938 198.289063 231.707031 C 198.289063 235.699219 199.875 239.53125 202.703125 242.355469 L 301.226563 340.882813 C 304.050781 343.707031 307.882813 345.292969 311.878906 345.292969 C 315.871094 345.292969 319.703125 343.707031 322.527344 340.882813 L 341.167969 322.242188 C 343.992188 319.417969 345.582031 315.585938 345.582031 311.589844 C 345.582031 307.59375 343.992188 303.765625 341.167969 300.9375 L 242.644531 202.414063 C 239.820313 199.589844 235.988281 198.003906 231.992188 198.003906 C 227.996094 198.003906 224.167969 199.589844 221.339844 202.414063 Z M 202.703125 221.054688 "/>
<path style="fill-rule:nonzero;fill:rgb(50%,50%,50%);fill-opacity:1;stroke-width:0.03;stroke-linecap:square;stroke-linejoin:miter;stroke:rgb(50%,50%,50%);stroke-opacity:1;stroke-miterlimit:3.25;" d="M 160.316406 58.398438 L 152.675781 74.78125 L 289.195313 138.441406 L 296.835938 122.058594 Z M 160.316406 58.398438 " transform="matrix(1,0,0,1,-74,-13)"/>
<path style="fill:none;stroke-width:2;stroke-linecap:square;stroke-linejoin:miter;stroke:rgb(0%,0%,0%);stroke-opacity:1;stroke-miterlimit:3.25;" d="M 160.316406 58.398438 L 152.675781 74.78125 L 289.195313 138.441406 L 296.835938 122.058594 Z M 160.316406 58.398438 " transform="matrix(1,0,0,1,-74,-13)"/>
<path style="fill-rule:nonzero;fill:rgb(84.999084%,84.999084%,84.999084%);fill-opacity:1;stroke-width:0.03;stroke-linecap:square;stroke-linejoin:miter;stroke:rgb(84.999084%,84.999084%,84.999084%);stroke-opacity:1;stroke-miterlimit:3.25;" d="M 165.535156 66.589844 L 147.457031 66.589844 L 147.457031 217.222656 L 165.535156 217.222656 Z M 165.535156 66.589844 " transform="matrix(1,0,0,1,-74,-13)"/>
<path style="fill:none;stroke-width:2;stroke-linecap:square;stroke-linejoin:miter;stroke:rgb(0%,0%,0%);stroke-opacity:1;stroke-miterlimit:3.25;" d="M 165.535156 66.589844 L 147.457031 66.589844 L 147.457031 217.222656 L 165.535156 217.222656 Z M 165.535156 66.589844 " transform="matrix(1,0,0,1,-74,-13)"/>
<path style="fill-rule:evenodd;fill:rgb(99.998474%,99.998474%,99.998474%);fill-opacity:1;stroke-width:2;stroke-linecap:square;stroke-linejoin:miter;stroke:rgb(0%,0%,0%);stroke-opacity:1;stroke-miterlimit:3.25;" d="M 169.558594 67 C 169.558594 63.40625 168.128906 59.957031 165.585938 57.414063 C 163.042969 54.871094 159.59375 53.441406 156 53.441406 C 152.40625 53.441406 148.957031 54.871094 146.414063 57.414063 C 143.871094 59.957031 142.441406 63.40625 142.441406 67 C 142.441406 70.59375 143.871094 74.042969 146.414063 76.585938 C 148.957031 79.128906 152.40625 80.558594 156 80.558594 C 159.59375 80.558594 163.042969 79.128906 165.585938 76.585938 C 168.128906 74.042969 169.558594 70.59375 169.558594 67 Z M 169.558594 67 " transform="matrix(1,0,0,1,-74,-13)"/>
<path style="fill-rule:evenodd;fill:rgb(99.998474%,99.998474%,99.998474%);fill-opacity:1;stroke-width:2;stroke-linecap:square;stroke-linejoin:miter;stroke:rgb(0%,0%,0%);stroke-opacity:1;stroke-miterlimit:3.25;" d="M 169.558594 67 C 169.558594 63.40625 168.128906 59.957031 165.585938 57.414063 C 163.042969 54.871094 159.59375 53.441406 156 53.441406 C 152.40625 53.441406 148.957031 54.871094 146.414063 57.414063 C 143.871094 59.957031 142.441406 63.40625 142.441406 67 C 142.441406 70.59375 143.871094 74.042969 146.414063 76.585938 C 148.957031 79.128906 152.40625 80.558594 156 80.558594 C 159.59375 80.558594 163.042969 79.128906 165.585938 76.585938 C 168.128906 74.042969 169.558594 70.59375 169.558594 67 Z M 169.558594 67 " transform="matrix(1,0,0,1,-74,-13)"/>
</g>
</svg>
